<svg width="47" height="47" viewBox="0 0 47 47" fill="none" xmlns="http://www.w3.org/2000/svg">
<g clip-path="url(#clip0_1_86)">
<path d="M46.226 30.3332L43.9841 27.1187L45.5483 16.5611C45.6737 15.7152 45.4244 14.8565 44.8657 14.2089C44.3423 13.6021 43.5956 13.237 42.8001 13.1937V7.06109C42.8001 4.07347 40.3694 1.64304 37.3817 1.64304H28.5839C25.6562 1.64304 24.1016 2.8793 22.9668 3.78206C22.0545 4.50772 21.5037 4.94564 20.3223 4.94564H7.60825C4.94585 4.94564 2.78004 7.05661 2.78004 9.65138V13.1937C1.98423 13.237 1.23775 13.6021 0.714267 14.2089C0.15582 14.8565 -0.0933877 15.7151 0.0318488 16.561L3.56089 40.3795C3.77422 41.8215 5.01221 42.8895 6.46985 42.8895H31.9522C32.639 44.3462 34.1213 45.3571 35.836 45.3571H38.8401C41.2066 45.3571 43.1318 43.432 43.1318 41.0654V37.0594C44.5658 36.9184 45.8356 36.0695 46.511 34.7739C47.2535 33.3512 47.1442 31.6495 46.226 30.3332ZM6.32058 13.1889V9.65138C6.32058 8.92216 6.97517 8.48619 7.60813 8.48619H20.3222C22.74 8.48619 24.0879 7.41438 25.1708 6.55313C26.17 5.75801 26.8926 5.18358 28.5838 5.18358H37.3816C38.4169 5.18358 39.2591 6.02585 39.2591 7.06109V13.1889H6.32058ZM44.0259 33.5495C43.7484 34.0811 43.1986 34.4145 42.5989 34.4145H40.3422V41.082C40.3422 41.971 39.6214 42.6914 38.7324 42.6914H35.7286C34.8396 42.6914 34.1189 41.971 34.1189 41.082V34.4144H31.862C31.2625 34.4144 30.7126 34.081 30.4351 33.5493C30.1578 33.0178 30.1991 32.376 30.542 31.8844L35.9108 24.1888C36.2117 23.7571 36.7044 23.5001 37.2309 23.5001C37.7568 23.5001 38.2495 23.7571 38.5507 24.1888L43.9192 31.8845C44.2619 32.3761 44.3033 33.0179 44.0259 33.5495Z" fill="#BDCBCB"/>
</g>
<defs>
<clipPath id="clip0_1_86">
<rect width="47" height="47" fill="white"/>
</clipPath>
</defs>
</svg>
